<svg xmlns="http://www.w3.org/2000/svg" xmlns:xlink="http://www.w3.org/1999/xlink" width="500" zoomAndPan="magnify" viewBox="0 0 375 374.999991" height="500" preserveAspectRatio="xMidYMid meet" version="1.0"><defs><g/><clipPath id="0e476aa4bb"><path d="M 69 77.8125 L 305.917969 77.8125 L 305.917969 297.5625 L 69 297.5625 Z M 69 77.8125 " clip-rule="nonzero"/></clipPath></defs><rect x="-37.5" width="450" fill="#ffffff" y="-37.499999" height="449.999989" fill-opacity="1"/><rect x="-37.5" width="450" fill="#ffffff" y="-37.499999" height="449.999989" fill-opacity="1"/><g clip-path="url(#0e476aa4bb)"><path fill="#e60000" d="M 131.210938 77.839844 C 96.902344 77.839844 69.058594 105.746094 69.058594 140.132812 C 69.058594 210.09375 139.460938 228.433594 187.433594 297.59375 C 232.789062 228.859375 305.808594 207.855469 305.808594 140.132812 C 305.808594 105.746094 277.964844 77.839844 243.660156 77.839844 C 218.773438 77.839844 197.355469 92.566406 187.433594 113.757812 C 177.511719 92.566406 156.09375 77.839844 131.210938 77.839844 Z M 131.210938 77.839844 " fill-opacity="1" fill-rule="nonzero"/></g><g fill="#000000" fill-opacity="1"><g transform="translate(370.781231, 371.349967)"><g><path d="M 2.109375 0.078125 C 1.804688 0.078125 1.566406 -0.00390625 1.390625 -0.171875 C 1.222656 -0.335938 1.140625 -0.5625 1.140625 -0.84375 C 1.140625 -1.113281 1.222656 -1.332031 1.390625 -1.5 C 1.566406 -1.675781 1.804688 -1.765625 2.109375 -1.765625 C 2.410156 -1.765625 2.644531 -1.679688 2.8125 -1.515625 C 2.988281 -1.347656 3.078125 -1.128906 3.078125 -0.859375 C 3.078125 -0.578125 2.988281 -0.347656 2.8125 -0.171875 C 2.632812 -0.00390625 2.398438 0.078125 2.109375 0.078125 Z M 2.109375 0.078125 "/></g></g></g></svg>